<svg xmlns="http://www.w3.org/2000/svg" viewBox="0 0 502.46 84.5"><defs><style>.cls-1,.cls-2{fill:#fc1454;}.cls-2{font-size:51.02px;font-family:AppleSDGothicNeo-SemiBold-KSCpc-EUC-H, Apple SD Gothic Neo;}</style></defs><g id="레이어_2" data-name="레이어 2"><g id="레이어_1-2" data-name="레이어 1"><path class="cls-1" d="M91.06,57.46c-1.16-.77-2.38-1.47-3.51-2.29-7.73-5.65-10-12.45-7-21.55,1.11-3.43,2.33-6.94,3.67-10.35.83-2.09.27-2.65-1.86-2.57a3.51,3.51,0,0,0-2.87,1.72c-2.57,3.31-5.12,6.66-7.9,9.81-2.27,2.59-2.5,5-.52,7.84,3.49,5.18,7.21,10.2,10.17,15.74,2.49,4.68,4,9.47,3.48,14.88-.62,7-.48,7-7.33,7-.76,0-1.52-.07-2.27,0-2.32.22-3.28-.32-1.9-2.75a31.06,31.06,0,0,0,2.37-5.3c1.88-5.41.41-9.44-4.39-12.49-.91-.57-1.85-1.12-2.73-1.74-8.05-5.67-10.41-12.65-7.37-22,1.14-3.44,2.33-6.95,3.68-10.35.79-2,.23-2.45-1.74-2.39a3.31,3.31,0,0,0-3,1.56,86,86,0,0,1-8.12,10.13c-2.23,2.37-2.43,4.72-.55,7.53,3.41,5.11,7,10.12,10,15.45a27.6,27.6,0,0,1,3.11,19.95c-.36,1.83-1.07,2.45-3,2.45-9-.1-17.91-.13-26.87,0-2.14,0-2.67-.88-3.07-2.7-1.7-7.74-.09-14.81,4.06-21.37,3-4.62,5.91-9.27,9.07-13.77,2-2.88,1.6-5.28-.63-7.82a93,93,0,0,1-7.29-9c-1.5-2.23-3.22-2.81-5.93-2,1.58,4.6,3.31,9.13,4.66,13.67C38,42.92,35.71,49.41,29,54.51c-1.2.92-2.48,1.72-3.75,2.53-5,3.21-6.31,7.12-4.59,12.75.8,2.65,4.28,5.53,2.41,7.5-1.37,1.48-5.52.23-8.42.42-2,.12-2.62-.69-3-2.48C10.41,68.69,11,62.36,14.2,56.47S21.4,45.18,25.07,39.6c1.7-2.59,1.51-4.81-.53-7a80.46,80.46,0,0,1-8.2-10.4,3.41,3.41,0,0,0-4.52-1.3c-1.43.7-.05,2.26.29,3.36.74,2.36,1.64,4.68,2.49,7,4.26,11.72,1.73,19-8.82,25.54C.15,60.31-1.34,64.42,1.2,70.52c1.7,4.08,3.83,8,5.65,12a3.07,3.07,0,0,0,3.28,2H85.84c1.1,0,2.15,0,2.75-1.19,2.34-4.85,5.17-9.48,6.73-14.67C96.73,63.91,95.19,60.17,91.06,57.46Z"/><path class="cls-1" d="M11.69,16c2.18.08,3.28-1.25,3.62-3.31-.26-2.11-1.36-3.5-3.49-3.48A3.4,3.4,0,0,0,11.69,16Z"/><path class="cls-1" d="M31.48,16c2.17.23,3.33-1.1,3.86-3.27-.23-1.84-1.18-3.38-3.33-3.51A3.4,3.4,0,0,0,31.48,16Z"/><path class="cls-1" d="M65,16.07c2.09-.33,3.39-1.51,3.28-3.64a3.4,3.4,0,0,0-6.79.21C61.45,14.78,62.83,15.87,65,16.07Z"/><path class="cls-1" d="M84.56,16a4.55,4.55,0,0,0,.53,0,3.18,3.18,0,0,0,3.15-3.21c.17-2.14-1.18-3.3-3.3-3.69-2,.25-3.43,1.25-3.48,3.43,0,.1,0,.2,0,.3A3.13,3.13,0,0,0,84.56,16Z"/><path class="cls-1" d="M48.17,6.72a3.33,3.33,0,0,0,3.37-3.47,3.39,3.39,0,0,0-6.78-.06C44.68,5.29,46,6.51,48.17,6.72Z"/><text class="cls-2" transform="translate(122.58 65.71)">쥬비스 예약 시스템</text></g></g></svg>